HIERARCHY
ROOT Hips
{
	OFFSET 0.00 0.00 0.00
	CHANNELS 6 Xposition Yposition Zposition Xrotation Yrotation Zrotation
	JOINT Spine
	{
		OFFSET 0.00000 7.06766 0.00000
		CHANNELS 3 Xrotation Yrotation Zrotation
		JOINT Head
		{
			OFFSET 0.00000 15.03989 0.00000
			CHANNELS 3 Xrotation Yrotation Zrotation
			End Site
			{
				OFFSET 0.00000 4.52755 0.00000
			}
		}
		JOINT LeftShoulder
		{
			OFFSET 0.00000 10.53037 0.00000
			CHANNELS 3 Xrotation Yrotation Zrotation
			JOINT LeftArm
			{
				OFFSET 7.02886 0.00000 0.00000
				CHANNELS 3 Xrotation Yrotation Zrotation
				JOINT LeftForeArm
				{
					OFFSET 10.79770 0.00000 0.00000
					CHANNELS 3 Yrotation Zrotation Xrotation
					JOINT LeftHand
					{
						OFFSET 7.90744 0.00000 0.00000
						CHANNELS 3 Xrotation Yrotation Zrotation
						JOINT LeftHandThumb1
						{
							OFFSET 0.00000 0.00000 0.00000
							CHANNELS 3 Xrotation Zrotation Yrotation
							End Site
							{
								OFFSET 0.00000 0.00000 3.93700
							}
						}
						End Site
						{
							OFFSET 3.93700 0.00000 0.00000
						}
					}
				}
			}
		}
		JOINT RightShoulder
		{
			OFFSET 0.00000 10.53037 0.00000
			CHANNELS 3 Xrotation Yrotation Zrotation
			JOINT RightArm
			{
				OFFSET -7.02886 0.00000 0.00000
				CHANNELS 3 Xrotation Yrotation Zrotation
				JOINT RightForeArm
				{
					OFFSET -10.79770 0.00000 0.00000
					CHANNELS 3 Yrotation Zrotation Xrotation
					JOINT RightHand
					{
						OFFSET -7.90744 0.00000 0.00000
						CHANNELS 3 Xrotation Yrotation Zrotation
						JOINT RightHandThumb1
						{
							OFFSET 0.00000 0.00000 0.00000
							CHANNELS 3 Xrotation Zrotation Yrotation
							End Site
							{
								OFFSET 0.00000 0.00000 3.93700
							}
						}
						End Site
						{
							OFFSET -3.93700 0.00000 0.00000
						}
					}
				}
			}
		}
	}
	JOINT LeftUpLeg
	{
		OFFSET 4.01300 0.00000 0.00000
		CHANNELS 3 Xrotation Yrotation Zrotation
		JOINT LeftLeg
		{
			OFFSET 0.00000 -16.89976 0.00000
			CHANNELS 3 Xrotation Yrotation Zrotation
			JOINT LeftFoot
			{
				OFFSET 0.00000 -17.38918 0.00000
				CHANNELS 3 Xrotation Yrotation Zrotation
				JOINT LeftToeBase
				{
					OFFSET 0.00000 -1.27456 4.75673
					CHANNELS 3 Xrotation Yrotation Zrotation
					End Site
					{
						OFFSET 0.00000 0.00000 2.95275
					}
				}
			}
		}
	}
	JOINT RightUpLeg
	{
		OFFSET -4.01300 0.00000 0.00000
		CHANNELS 3 Xrotation Yrotation Zrotation
		JOINT RightLeg
		{
			OFFSET 0.00000 -16.89976 0.00000
			CHANNELS 3 Xrotation Yrotation Zrotation
			JOINT RightFoot
			{
				OFFSET 0.00000 -17.38918 0.00000
				CHANNELS 3 Xrotation Yrotation Zrotation
				JOINT RightToeBase
				{
					OFFSET 0.00000 -1.27456 4.75673
					CHANNELS 3 Xrotation Yrotation Zrotation
					End Site
					{
						OFFSET 0.00000 0.00000 2.95275
					}
				}
			}
		}
	}
}
MOTION
Frames: 9
Frame Time: 0.008333
 17.9077 3.7540 -15.0780 -154.4343 1.1099 -170.6528 63.6403 7.4779 23.0805 -32.2272 5.1611 9.6707 -40.0529 -21.1165 24.1230 -23.1220 -20.0779 -0.9436 -57.3770 -0.0000 13.0921 -1.3718 1.8811 36.1112 33.1476 -0.0000 26.2537 -9.8002 3.5381 -20.7822 -65.3389 20.2664 22.1021 42.3424 0.0000 21.9267 -0.7044 -2.8945 -13.6843 32.8623 0.0000 -24.3270 -58.1894 7.8163 41.2731 2.1736 0.0000 -0.0000 28.0025 22.0893 4.4678 11.5128 -0.0000 -0.0000 -65.1966 7.9885 -40.4546 5.1619 -0.0000 -0.0000 22.3865 -32.4052 -4.4969 13.2375 0.0000 -0.0000
 17.9196 3.7671 -15.0927 -154.6915 1.2176 -170.4355 63.7944 7.3923 23.2394 -32.4265 5.2896 9.4970 -39.9877 -21.1143 24.2334 -23.1859 -20.3840 -1.0059 -57.9092 -0.0000 13.4498 -1.4086 1.9683 35.6004 33.1476 -0.0000 26.2537 -9.8438 3.5672 -20.8118 -65.3914 20.2660 22.2720 42.5300 0.0000 21.9007 -0.6833 -2.8434 -13.5187 32.8623 0.0000 -24.3270 -58.2202 7.9640 41.2689 2.1291 0.0000 -0.0000 28.1393 22.2083 4.2271 10.8728 0.0000 0.0000 -65.4707 8.2062 -40.4252 5.1672 -0.0000 0.0000 22.5276 -32.4309 -4.5082 13.1907 0.0000 -0.0000
 17.9343 3.7773 -15.1110 -154.9364 1.3780 -170.2374 63.9417 7.4064 23.3447 -32.6429 5.3444 9.2991 -40.1103 -21.3400 24.2384 -22.9616 -20.5716 -0.9885 -58.4785 -0.0000 14.0677 -1.5565 2.1689 35.6777 33.1476 -0.0000 26.2537 -9.8346 3.4665 -20.8361 -65.4376 20.3343 22.4399 42.6787 0.0000 21.9693 -0.6892 -2.8618 -13.5469 32.8623 0.0000 -24.3270 -58.2408 8.1022 41.3389 2.1528 0.0000 -0.0000 27.9996 22.1612 4.3055 11.4350 0.0000 0.0000 -65.7320 8.4460 -40.3343 5.1863 0.0000 -0.0000 22.6710 -32.4191 -4.4636 13.1965 0.0000 -0.0000
 17.9467 3.7953 -15.1253 -155.1654 1.5199 -169.9960 64.1472 7.3366 23.4240 -32.8705 5.4322 9.1771 -40.2176 -21.3774 24.3184 -22.8741 -20.9244 -1.1459 -58.9604 -0.0000 14.6774 -1.5632 2.1781 35.6796 33.1476 -0.0000 26.2537 -9.8331 3.4492 -20.8083 -65.4236 20.3988 22.5035 42.9014 0.0000 21.9352 -0.7101 -2.9595 -13.4982 32.8623 0.0000 -24.3270 -58.2198 8.2899 41.3486 2.1090 -0.0000 0.0000 28.0420 22.2214 4.2836 11.0678 -0.0000 -0.0000 -65.9791 8.6731 -40.2885 5.1744 -0.0000 -0.0000 22.8600 -32.4228 -4.2783 13.3800 -0.0000 0.0000
 17.9648 3.8120 -15.1411 -155.3888 1.7042 -169.8802 64.3250 7.4536 23.5571 -33.0564 5.4905 8.9650 -40.1282 -21.4722 24.3444 -22.9139 -21.1727 -1.1614 -59.4997 -0.0000 15.1483 -1.5434 2.1693 35.4430 33.1476 -0.0000 26.2537 -9.8199 3.3646 -20.8614 -65.4479 20.4554 22.6253 43.0285 0.0000 21.9804 -0.7291 -3.0252 -13.5569 32.8623 0.0000 -24.3270 -58.2491 8.4064 41.4884 2.0970 0.0000 -0.0000 28.0672 22.1665 4.2339 11.2976 0.0000 0.0000 -66.2059 8.7974 -40.1247 5.1195 0.0000 0.0000 23.0891 -32.4400 -4.2676 13.5255 0.0000 0.0000
 17.9753 3.8259 -15.1580 -155.6180 1.8023 -169.7037 64.5046 7.3410 23.7378 -33.1833 5.7281 8.7717 -40.0279 -21.4214 24.4627 -22.9423 -21.4646 -1.2536 -60.0156 -0.0000 15.4706 -1.5023 2.1296 35.2132 33.1476 -0.0000 26.2537 -9.8274 3.4597 -20.9109 -65.4467 20.4201 22.7387 43.2313 0.0000 21.9418 -0.7081 -2.9519 -13.4948 32.8623 0.0000 -24.3270 -58.2729 8.5074 41.4959 2.0983 0.0000 -0.0000 28.0381 22.1978 4.2413 11.2903 0.0000 -0.0000 -66.4998 8.9020 -40.0761 5.1070 -0.0000 -0.0000 23.2726 -32.3962 -4.3993 13.5452 -0.0000 -0.0000
 17.9860 3.8402 -15.1761 -155.8192 1.9532 -169.5147 64.7103 7.2903 23.8281 -33.2861 5.8378 8.6049 -40.0171 -21.4559 24.5187 -22.8213 -21.8064 -1.3079 -60.5177 -0.0000 15.8157 -1.7007 2.3846 35.5118 33.1476 -0.0000 26.2537 -9.7998 3.4553 -20.9221 -65.4608 20.4673 22.8415 43.3555 0.0000 21.8648 -0.7320 -3.0356 -13.5645 32.8623 0.0000 -24.3270 -58.2959 8.6945 41.5487 2.0764 -0.0000 -0.0000 28.0415 22.1336 4.4424 11.1622 -0.0000 0.0000 -66.7925 9.0198 -39.9861 5.1192 0.0000 0.0000 23.4189 -32.3052 -4.5465 13.5653 0.0000 -0.0000
 17.9989 3.8503 -15.1909 -156.0741 2.0908 -169.3038 64.8643 7.2054 23.8843 -33.4342 5.9323 8.4726 -40.1902 -21.6159 24.5886 -22.6373 -21.9810 -1.5176 -61.2012 -0.0000 16.5076 -1.8506 2.6273 35.1785 33.1476 -0.0000 26.2537 -9.7778 3.4147 -20.8727 -65.6193 20.5284 23.0503 43.4637 0.0000 21.9875 -0.7220 -3.0078 -13.5057 32.8623 0.0000 -24.3270 -58.3944 8.9038 41.5905 2.0735 -0.0000 -0.0000 28.1210 22.1209 4.3623 11.0816 0.0000 -0.0000 -67.1127 9.2278 -39.8894 5.1524 -0.0000 0.0000 23.6350 -32.3639 -4.5688 13.5028 -0.0000 -0.0000
 18.0124 3.8618 -15.2058 -156.2997 2.2239 -169.1700 65.0061 7.2667 24.0047 -33.5556 6.0148 8.2841 -39.9474 -21.5922 24.6288 -22.7253 -22.3208 -1.4965 -61.7215 -0.0000 16.7797 -1.7714 2.5362 34.9503 33.1476 -0.0000 26.2537 -9.8338 3.3824 -20.9046 -65.5084 20.5321 23.1076 43.6267 0.0000 21.9329 -0.7156 -2.9836 -13.4937 32.8623 0.0000 -24.3270 -58.4594 9.0152 41.6764 2.0946 -0.0000 -0.0000 28.0746 22.0883 4.3797 10.9674 -0.0000 0.0000 -67.4298 9.2973 -39.7685 5.1573 -0.0000 0.0000 23.7493 -32.3377 -4.6253 13.8127 0.0000 -0.0000
